<?xml version="1.0" encoding="utf-8"?>
<!-- Generator: Adobe Illustrator 19.1.0, SVG Export Plug-In . SVG Version: 6.00 Build 0)  -->
<svg version="1.1" id="Layer_1" xmlns="http://www.w3.org/2000/svg" xmlns:xlink="http://www.w3.org/1999/xlink" x="0px" y="0px"
	 viewBox="-255 57 448 448" style="enable-background:new -255 57 448 448;" xml:space="preserve">
<path d="M135.2,184.6c-17.2-29.4-40.5-52.7-69.9-69.9C36,97.6,3.8,89-31,89c-34.8,0-67,8.6-96.4,25.8s-52.7,40.5-69.9,69.9
	S-223,246.2-223,281s8.6,67,25.8,96.4c17.2,29.4,40.5,52.7,69.9,69.9C-98,464.4-65.8,473-31,473c34.8,0,67-8.6,96.4-25.8
	c29.4-17.2,52.7-40.5,69.9-69.9C152.4,348,161,315.8,161,281S152.4,214,135.2,184.6z M-5.2,249.1L-34.4,377
	c-1.5,6.5,3.1,12.7,9.6,12.7h11.5l-4.6,21.5c-6.5,3.1-16.5,5.4-28.4,5.4c-26.5,0-35.3-16.9-29.6-41.5l28.4-122.6
	c1.5-6.5-2.7-13.4-9.2-13.4h-14.6l5-22.7c6.1-1.9,16.5-5.4,33.4-5.4C-10.2,211.1,1,223.8-5.2,249.1z M-9.8,191.9
	c-13.4,0-22.3-10.4-22.3-22.7c0-13.5,11.5-23.8,24.6-23.8c13.4,0,23.1,10,23.1,22.3C15.6,181.5,3.3,191.9-9.8,191.9z"/>
</svg>
