<?xml version="1.0" encoding="utf-8"?>
<!-- Generator: Adobe Illustrator 19.1.0, SVG Export Plug-In . SVG Version: 6.00 Build 0)  -->
<svg version="1.1" id="Layer_1" xmlns="http://www.w3.org/2000/svg" xmlns:xlink="http://www.w3.org/1999/xlink" x="0px" y="0px"
	 viewBox="-255 57 448 448" style="enable-background:new -255 57 448 448;" xml:space="preserve">
<style type="text/css">
	.st0{fill:#FFFFFF;}
</style>
<path class="st0" d="M163,168.6c-20-34.3-47.2-61.5-81.5-81.5C47.1,67,9.6,57-31,57c-40.6,0-78.1,10-112.4,30s-61.5,47.2-81.5,81.5
	s-30,71.8-30,112.4s10,78.1,30,112.4c20,34.3,47.2,61.5,81.5,81.5c34.3,20,71.8,30,112.4,30c40.6,0,78.1-10,112.4-30
	c34.3-20,61.5-47.2,81.5-81.5c20-34.3,30-71.8,30-112.4S183,202.9,163,168.6z"/>
<path d="M124.5,190.8c-16.1-27.5-37.9-49.3-65.4-65.4c-27.4-16-57.5-24-90.1-24s-62.7,8-90.2,24.1s-49.3,37.9-65.4,65.4
	s-24,57.5-24,90.1s8,62.7,24.1,90.2c16.1,27.5,37.9,49.3,65.4,65.4c27.4,16,57.5,24,90.1,24s62.7-8,90.2-24.1s49.3-37.9,65.4-65.4
	c16-27.4,24-57.5,24-90.1S140.6,218.3,124.5,190.8z M57.1,352.9c2.2,2.2,3.3,4.9,3.3,8.1s-1.1,6-3.3,8.1c-2.2,2.2-4.9,3.3-8.1,3.3
	c-3.2,0-5.9-1.1-8.1-3.3l-71.8-72l-71.9,72c-2.2,2.2-4.9,3.3-8.1,3.3s-6-1.1-8.1-3.3c-2.2-2.2-3.3-4.9-3.3-8.1
	c0-3.2,1.1-5.9,3.3-8.1l72-71.9l-72-71.9c-2.2-2.2-3.3-4.9-3.3-8.1s1.1-6,3.3-8.1c2.2-2.2,4.9-3.3,8.1-3.3c3.2,0,5.9,1.1,8.1,3.3
	l71.9,72l71.9-72c2.2-2.2,4.9-3.3,8.1-3.3s6,1.1,8.1,3.3c2.2,2.2,3.3,4.9,3.3,8.1c0,3.2-1.1,5.9-3.3,8.1l-72,71.9L57.1,352.9z"/>
</svg>
