<?xml version="1.0" encoding="utf-8"?>
<!-- Generator: Adobe Illustrator 19.1.0, SVG Export Plug-In . SVG Version: 6.00 Build 0)  -->
<svg version="1.1" id="Layer_1" xmlns="http://www.w3.org/2000/svg" xmlns:xlink="http://www.w3.org/1999/xlink" x="0px" y="0px"
	 viewBox="-255 57 448 448" style="enable-background:new -255 57 448 448;" xml:space="preserve">
<path d="M135.2,184.6c-17.2-29.4-40.5-52.7-69.9-69.9C36,97.6,3.8,89-31,89c-34.8,0-67,8.6-96.4,25.8s-52.7,40.5-69.9,69.9
	S-223,246.2-223,281s8.6,67,25.8,96.4c17.2,29.4,40.5,52.7,69.9,69.9C-98,464.4-65.8,473-31,473c34.8,0,67-8.6,96.4-25.8
	c29.4-17.2,52.7-40.5,69.9-69.9C152.4,348,161,315.8,161,281S152.4,214,135.2,184.6z M63.1,357.8c2.4,2.4,3.5,5.2,3.5,8.7
	c0,3.5-1.2,6.4-3.5,8.7c-2.3,2.3-5.2,3.5-8.7,3.5c-3.4,0-6.3-1.2-8.7-3.5L-31,298.3l-76.8,76.9c-2.4,2.4-5.2,3.5-8.7,3.5
	c-3.5,0-6.4-1.2-8.7-3.5c-2.3-2.3-3.5-5.2-3.5-8.7c0-3.4,1.2-6.3,3.5-8.7l76.9-76.8l-76.9-76.8c-2.4-2.4-3.5-5.2-3.5-8.7
	c0-3.5,1.2-6.4,3.5-8.7c2.3-2.3,5.2-3.5,8.7-3.5c3.4,0,6.3,1.2,8.7,3.5l76.8,76.9l76.8-76.9c2.4-2.4,5.2-3.5,8.7-3.5
	c3.5,0,6.4,1.2,8.7,3.5c2.3,2.3,3.5,5.2,3.5,8.7c0,3.4-1.2,6.3-3.5,8.7L-13.7,281L63.1,357.8z"/>
</svg>
