<?xml version="1.0" encoding="utf-8"?>
<!-- Generator: Adobe Illustrator 19.1.0, SVG Export Plug-In . SVG Version: 6.00 Build 0)  -->
<svg version="1.1" id="Layer_1" xmlns="http://www.w3.org/2000/svg" xmlns:xlink="http://www.w3.org/1999/xlink" x="0px" y="0px"
	 viewBox="-255 57 448 448" style="enable-background:new -255 57 448 448;" xml:space="preserve">
<style type="text/css">
	.st0{fill:#FFFFFF;}
</style>
<path class="st0" d="M163,168.6c-20-34.3-47.2-61.5-81.5-81.5C47.1,67,9.6,57-31,57c-40.6,0-78.1,10-112.4,30s-61.5,47.2-81.5,81.5
	s-30,71.8-30,112.4s10,78.1,30,112.4c20,34.3,47.2,61.5,81.5,81.5c34.3,20,71.8,30,112.4,30c40.6,0,78.1-10,112.4-30
	c34.3-20,61.5-47.2,81.5-81.5c20-34.3,30-71.8,30-112.4S183,202.9,163,168.6z"/>
<path d="M124.5,190.8c-16.1-27.5-37.9-49.3-65.4-65.4c-27.4-16-57.5-24-90.1-24s-62.7,8-90.2,24.1s-49.3,37.9-65.4,65.4
	s-24,57.5-24,90.1s8,62.7,24.1,90.2c16.1,27.5,37.9,49.3,65.4,65.4c27.4,16,57.5,24,90.1,24s62.7-8,90.2-24.1s49.3-37.9,65.4-65.4
	c16-27.4,24-57.5,24-90.1S140.6,218.3,124.5,190.8z M-6.9,251.1l-27.3,119.7c-1.4,6.1,2.9,11.9,9,11.9h10.8l-4.3,20.1
	c-6.1,2.9-15.4,5.1-26.6,5.1c-24.8,0-33-15.8-27.7-38.8l26.6-114.7c1.4-6.1-2.5-12.5-8.6-12.5h-13.7l4.7-21.2
	c5.7-1.8,15.4-5.1,31.3-5.1C-11.5,215.6-1.1,227.5-6.9,251.1z M-11.2,197.6c-12.5,0-20.9-9.7-20.9-21.2c0-12.6,10.8-22.3,23-22.3
	c12.5,0,21.6,9.4,21.6,20.9C12.6,187.9,1.1,197.6-11.2,197.6z"/>
</svg>
