<?xml version="1.0" encoding="utf-8"?>
<!-- Generator: Adobe Illustrator 19.1.0, SVG Export Plug-In . SVG Version: 6.00 Build 0)  -->
<svg version="1.1" id="Layer_1" xmlns="http://www.w3.org/2000/svg" xmlns:xlink="http://www.w3.org/1999/xlink" x="0px" y="0px"
	 viewBox="-255 57 448 448" style="enable-background:new -255 57 448 448;" xml:space="preserve">
<path d="M135.2,184.6c-17.2-29.4-40.5-52.7-69.9-69.9C36,97.6,3.8,89-31,89c-34.8,0-67,8.6-96.4,25.8s-52.7,40.5-69.9,69.9
	S-223,246.2-223,281s8.6,67,25.8,96.4c17.2,29.4,40.5,52.7,69.9,69.9C-98,464.4-65.8,473-31,473c34.8,0,67-8.6,96.4-25.8
	c29.4-17.2,52.7-40.5,69.9-69.9C152.4,348,161,315.8,161,281S152.4,214,135.2,184.6z"/>
</svg>
